<svg xmlns="http://www.w3.org/2000/svg" viewBox="0 0 44 44" fill="none">
  <path d="M22 5C12.6 5 5 12.6 5 22c0 4.4 1.6 8.4 4.3 11.5l.7.7L22 39l12-4.8.7-.7C37.4 30.4 39 26.4 39 22 39 12.6 31.4 5 22 5z"
        stroke="#2c3540" stroke-width="1.5" fill="none"/>
  <path d="M22 7c-2.2 4.5-3.3 8.8-3.3 15s1.1 10.5 3.3 14"
        stroke="#2c3540" stroke-width="1" stroke-linecap="round" opacity="0.45"/>
  <path d="M17.5 8.5c-1.2 3.5-1.8 7-1.8 13.5s.6 10 2 13"
        stroke="#2c3540" stroke-width="1" stroke-linecap="round" opacity="0.3"/>
  <path d="M26.5 8.5c1.2 3.5 1.8 7 1.8 13.5s-.6 10-2 13"
        stroke="#2c3540" stroke-width="1" stroke-linecap="round" opacity="0.3"/>
</svg>
